<svg width="32" height="16" viewBox="0 0 32 16" fill="none" xmlns="http://www.w3.org/2000/svg">
<path d="M22.7111 0.358472C22.2371 0.834743 22.2389 1.60509 22.7152 2.07911L26.9834 6.32679L1.21668 6.32679C0.544709 6.32679 0 6.8715 0 7.54348C0 8.21545 0.544709 8.76016 1.21668 8.76016L26.9835 8.76016L22.7151 13.0078C22.2389 13.4819 22.237 14.2522 22.711 14.7285C23.1851 15.2048 23.9555 15.2066 24.4317 14.7326L30.7892 8.40586C30.7896 8.4055 30.7899 8.40507 30.7903 8.40471C31.2653 7.93069 31.2668 7.15785 30.7903 6.68225C30.7899 6.68188 30.7896 6.68146 30.7892 6.68109L24.4318 0.354335C23.9556 -0.119563 23.1852 -0.117921 22.7111 0.358472Z" fill="#767676"/>
</svg>
